<?xml version="1.0" encoding="UTF-8"?><svg version="1.1" width="109px" height="1020px" viewBox="0 0 109.0 1020.0" xmlns="http://www.w3.org/2000/svg" xmlns:xlink="http://www.w3.org/1999/xlink"><defs><clipPath id="i0"><path d="M109,0 L109,1020 L0,1020 L0,0 L109,0 Z"></path></clipPath><clipPath id="i1"><path d="M84.0278711,0 L84.0278711,27.3315587 L33.9645582,77.3920003 L33.9645582,196.069679 L0,230.030751 L0,229.161887 L33.3493976,195.814402 L33.3493976,77.1382611 L83.4127104,27.0778194 L83.4127104,0 L84.0278711,0 Z"></path></clipPath><radialGradient id="i2" cx="-140.359671px" cy="187.204184px" r="439.210874px" gradientUnits="userSpaceOnUse"><stop stop-color="#EDF3FB" offset="0%"></stop><stop stop-color="#E7EBF8" offset="100%"></stop></radialGradient><clipPath id="i3"><path d="M84.0278711,0 L84.0278711,27.3315587 L33.9645582,77.3920003 L33.9645582,196.069679 L0.407902526,229.637001 L0,229.114741 L33.3493976,195.814402 L33.3493976,77.1382611 L83.4127104,27.0778194 L83.4127104,0 L84.0278711,0 Z"></path></clipPath><radialGradient id="i4" cx="-140.359671px" cy="186.883741px" r="439.210874px" gradientUnits="userSpaceOnUse"><stop stop-color="#EDF3FB" offset="0%"></stop><stop stop-color="#E7EBF8" offset="100%"></stop></radialGradient><clipPath id="i5"><path d="M75.912883,0 L75.912883,0.868919812 L0.615152408,76.1681266 L0.615152408,199.265613 L0,199.265613 L0,75.9128334 L75.912883,0 Z"></path></clipPath><radialGradient id="i6" cx="-458.509999px" cy="140.151383px" r="439.204979px" gradientUnits="userSpaceOnUse"><stop stop-color="#EDF3FB" offset="0%"></stop><stop stop-color="#E7EBF8" offset="100%"></stop></radialGradient><clipPath id="i7"><path d="M32.9317541,0 L32.9317541,90.5953691 L0.216889034,123.296483 L0,123.078147 L0,122.643014 L32.316466,90.3401319 L32.316466,0 L32.9317541,0 Z"></path></clipPath><radialGradient id="i8" cx="-295.932012px" cy="187.174974px" r="439.301816px" gradientUnits="userSpaceOnUse"><stop stop-color="#EDF3FB" offset="0%"></stop><stop stop-color="#E7EBF8" offset="100%"></stop></radialGradient><clipPath id="i9"><path d="M0.870360328,0 L66.3795835,65.5179114 L92.3673742,65.5179114 L183.247755,156.410345 L182.814112,156.845583 L92.1136473,66.1330886 L66.1243188,66.1330886 L0,0 L0.870360328,0 Z"></path></clipPath><radialGradient id="i10" cx="70.5114885px" cy="54.4724045px" r="439.164446px" gradientUnits="userSpaceOnUse"><stop stop-color="#EDF3FB" offset="0%"></stop><stop stop-color="#E7EBF8" offset="100%"></stop></radialGradient></defs><g clip-path="url(#i0)"><g transform="translate(-87.84510454267797 0.2070035022952652)"><g transform="translate(88.86634397093441 230.0307511090329) scale(1.0 -1.0)"><g clip-path="url(#i1)"><g clip-path="url(#i1)"><polygon points="0,0 84.0278711,0 84.0278711,230.030751 0,230.030751 0,0" stroke="none" fill="url(#i2)"></polygon></g></g></g><g transform="translate(110.89948029254448 1020.2512616368228) scale(1.0 -1.0)"><g clip-path="url(#i1)"><g transform="translate(6.892264536872972e-13 0.04718579509929555)"><g clip-path="url(#i3)"><polygon points="0,0.411079344 84.0278711,0.411079344 84.0278711,229.637001 0,229.637001 0,0.411079344" stroke="none" fill="url(#i4)"></polygon></g></g></g></g><g transform="translate(172.89421503901232 428.11671893584855) rotate(-180.0)"><g clip-path="url(#i5)"><g clip-path="url(#i5)"><polygon points="0,0 75.912883,0 75.912883,199.265613 0,199.265613 0,0" stroke="none" fill="url(#i6)"></polygon></g></g></g><g transform="translate(96.98133208081708 551.0357151694933) scale(1.0 -1.0)"><g clip-path="url(#i7)"><g clip-path="url(#i7)"><polygon points="0,0 32.9317541,0 32.9317541,123.296483 0,123.296483 0,0" stroke="none" fill="url(#i8)"></polygon></g></g></g><g transform="translate(110.90657527484461 791.0816015781909) rotate(-45.00000000000001) scale(1.0 -1.0)"><g clip-path="url(#i9)"><g clip-path="url(#i9)"><polygon points="2.91038305e-11,-7.27595761e-12 183.247755,-7.27595761e-12 183.247755,156.845583 2.91038305e-11,156.845583 2.91038305e-11,-7.27595761e-12" stroke="none" fill="url(#i10)"></polygon></g></g></g></g></g></svg>