<?xml version="1.0" encoding="UTF-8"?><svg version="1.1" width="109px" height="1020px" viewBox="0 0 109.0 1020.0" xmlns="http://www.w3.org/2000/svg" xmlns:xlink="http://www.w3.org/1999/xlink"><defs><clipPath id="i0"><path d="M109,0 L109,1020 L0,1020 L0,0 L109,0 Z"></path></clipPath><clipPath id="i1"><path d="M84.0278711,0 L84.0278711,27.3278617 L33.9645582,77.381532 L33.9645582,196.043158 L0,229.999636 L0,229.130889 L33.3493976,195.787915 L33.3493976,77.1278271 L83.4127104,27.0741568 L83.4127104,0 L84.0278711,0 Z"></path></clipPath><radialGradient id="i2" cx="-140.359671px" cy="187.178862px" r="439.210874px" gradientUnits="userSpaceOnUse"><stop stop-color="#EDF3FB" offset="0%"></stop><stop stop-color="#E7EBF8" offset="100%"></stop></radialGradient><clipPath id="i3"><path d="M84.0278711,0 L84.0278711,27.3278617 L33.9645582,77.381532 L33.9645582,196.043158 L0.407902526,229.605939 L0,229.08375 L33.3493976,195.787915 L33.3493976,77.1278271 L83.4127104,27.0741568 L83.4127104,0 L84.0278711,0 Z"></path></clipPath><radialGradient id="i4" cx="-140.359671px" cy="186.858462px" r="439.210874px" gradientUnits="userSpaceOnUse"><stop stop-color="#EDF3FB" offset="0%"></stop><stop stop-color="#E7EBF8" offset="100%"></stop></radialGradient><clipPath id="i5"><path d="M75.912883,0 L75.912883,0.86880228 L0.615152408,76.1578239 L0.615152408,199.238659 L0,199.238659 L0,75.9025652 L75.912883,0 Z"></path></clipPath><radialGradient id="i6" cx="-458.509999px" cy="140.132426px" r="439.204979px" gradientUnits="userSpaceOnUse"><stop stop-color="#EDF3FB" offset="0%"></stop><stop stop-color="#E7EBF8" offset="100%"></stop></radialGradient><clipPath id="i7"><path d="M32.9317541,0 L32.9317541,90.5831149 L0.216889034,123.279805 L0,123.061499 L0,122.626425 L32.316466,90.3279122 L32.316466,0 L32.9317541,0 Z"></path></clipPath><radialGradient id="i8" cx="-295.932012px" cy="187.149656px" r="439.301816px" gradientUnits="userSpaceOnUse"><stop stop-color="#EDF3FB" offset="0%"></stop><stop stop-color="#E7EBF8" offset="100%"></stop></radialGradient><clipPath id="i9"><path d="M0.870360328,0 L66.3795835,65.5090493 L92.3673742,65.5090493 L183.247755,156.389188 L182.814112,156.824367 L92.1136473,66.1241433 L66.1243188,66.1241433 L0,0 L0.870360328,0 Z"></path></clipPath><radialGradient id="i10" cx="70.5114885px" cy="54.4650364px" r="439.164446px" gradientUnits="userSpaceOnUse"><stop stop-color="#EDF3FB" offset="0%"></stop><stop stop-color="#E7EBF8" offset="100%"></stop></radialGradient></defs><g clip-path="url(#i0)"><g transform="translate(195.75542962212677 1020.1132593019611) rotate(-180.0)"><g transform="translate(88.85884318807804 229.99963643960118) scale(1.0 -1.0)"><g clip-path="url(#i1)"><g clip-path="url(#i1)"><polygon points="2.91038305e-11,0 84.0278711,0 84.0278711,229.886377 2.91038305e-11,229.886377 2.91038305e-11,0" stroke="none" fill="url(#i2)"></polygon></g></g></g><g transform="translate(110.89197950969539 1020.1132593019593) scale(1.0 -1.0)"><g clip-path="url(#i1)"><g transform="translate(6.892264536872972e-13 0.047179412603000515)"><g clip-path="url(#i3)"><polygon points="0,0 84.0278711,0 84.0278711,229.605939 0,229.605939 0,0" stroke="none" fill="url(#i4)"></polygon></g></g></g></g><g transform="translate(172.88671425615595 428.0588105469726) rotate(-180.0)"><g clip-path="url(#i5)"><g clip-path="url(#i5)"><polygon points="0,0 75.912883,0 75.912883,199.238659 0,199.238659 0,0" stroke="none" fill="url(#i6)"></polygon></g></g></g><g transform="translate(96.97383129796799 550.9611803777792) scale(1.0 -1.0)"><g clip-path="url(#i7)"><g clip-path="url(#i7)"><polygon points="0,0 32.9317541,0 32.9317541,123.279805 0,123.279805 0,0" stroke="none" fill="url(#i8)"></polygon></g></g></g><g transform="translate(110.89157370913458 790.9833608455328) rotate(-45.00000000000001) scale(1.0 -1.0)"><g transform=""><g clip-path="url(#i9)"><g clip-path="url(#i9)"><polygon points="2.91038305e-11,-7.27595761e-12 183.247755,-7.27595761e-12 183.247755,156.824367 2.91038305e-11,156.824367 2.91038305e-11,-7.27595761e-12" stroke="none" fill="url(#i10)"></polygon></g></g></g></g></g></g></svg>