<svg version="1.1" width="11021px" height="1570px" viewBox="0 0 11021.0 1570.0" xmlns="http://www.w3.org/2000/svg"
     xmlns:xlink="http://www.w3.org/1999/xlink">
    <defs>
        <clipPath id="108104451125011910050104116">
            <path d="M3140.80035,0 L3094.17903,46.5961887 L0,46.5961887 L48.4353162,0 L3140.80035,0 Z"></path>
        </clipPath>
        <clipPath id="105117121102108105115459956">
            <path d="M1890.39198,0 L1857.013,34.8294744 L0,34.8294744 L34.8520289,0 L1890.39198,0 Z"></path>
        </clipPath>
        <clipPath id="981081011130561001075756">
            <path
                d="M4550,0 L4550,761.711191 L4409.72162,901.913945 L746.905615,901.913945 L660.988639,987.78272 L0,988.968805 L0,337.394059 L277.657762,59.8878692 L2437.93163,59.8878692 L2497.85181,0 L4550,0 Z M4536.94603,13.0281061 L2503.258,13.0281061 L2443.33782,72.934802 L283.058301,72.934802 L13.0389009,342.797335 L13.0389009,975.903045 L655.574915,974.754614 L741.505076,888.867013 L4404.31543,888.867013 L4536.94603,756.307916 L4536.94603,13.0281061 Z"></path>
        </clipPath>
        <clipPath id="10911411312012010810510097110">
            <path
                d="M27.1326681,823.990056 L27.1326681,857.407525 L0,857.407525 L0,823.990056 L27.1326681,823.990056 Z M369.623266,823.990056 L369.623266,857.407525 L29.0182416,857.407525 L29.0182416,823.990056 L369.623266,823.990056 Z M570.221162,823.990056 L543.94934,857.407525 L371.506956,857.407525 L371.506956,823.990056 L570.221162,823.990056 Z M27.1326681,481.682217 L27.1326681,822.107382 L0,822.107382 L0,481.682217 L27.1326681,481.682217 Z M369.623266,481.682217 L369.623266,822.107382 L29.0182416,822.107382 L29.0182416,481.682217 L369.623266,481.682217 Z M712.111981,481.682217 L712.111981,781.573405 L603.558704,781.573405 L571.701742,822.107382 L371.506956,822.107382 L371.506956,481.682217 L712.111981,481.682217 Z M1054.6007,481.682217 L1054.6007,781.573405 L713.99567,781.573405 L713.99567,481.682217 L1054.6007,481.682217 Z M1397.09129,481.682217 L1397.09129,781.573405 L1056.48438,781.573405 L1056.48438,481.682217 L1397.09129,481.682217 Z M1739.58377,481.682217 L1739.58377,781.573405 L1398.97498,781.573405 L1398.97498,481.682217 L1739.58377,481.682217 Z M2082.05742,481.682217 L2082.05742,781.573405 L1741.46746,781.573405 L1741.46746,481.682217 L2082.05742,481.682217 Z M2424.5499,481.682217 L2424.5499,781.573405 L2083.95995,781.573405 L2083.95995,481.682217 L2424.5499,481.682217 Z M2767.04238,481.682217 L2767.04238,781.573405 L2426.43359,781.573405 L2426.43359,481.682217 L2767.04238,481.682217 Z M3109.53487,481.682217 L3109.53487,781.573405 L2768.92607,781.573405 L2768.92607,481.682217 L3109.53487,481.682217 Z M3452.02735,481.682217 L3452.02735,781.573405 L3111.41856,781.573405 L3111.41856,481.682217 L3452.02735,481.682217 Z M3795.9326,481.682217 L3795.9326,781.573405 L3455.3238,781.573405 L3455.3238,481.682217 L3795.9326,481.682217 Z M4136.99347,481.682217 L4136.99347,781.573405 L3796.40352,781.573405 L3796.40352,481.682217 L4136.99347,481.682217 Z M4414.93191,481.682217 L4414.93191,667.991665 L4301.30774,781.573405 L4138.87716,781.573405 L4138.87716,481.682217 L4414.93191,481.682217 Z M3109.53487,139.374378 L3109.53487,479.799543 L2768.92607,479.799543 L2768.92607,139.374378 L3109.53487,139.374378 Z M2767.04238,139.374378 L2767.04238,479.799543 L2426.43359,479.799543 L2426.43359,139.374378 L2767.04238,139.374378 Z M2424.5499,139.374378 L2424.5499,479.799543 L2083.95995,479.799543 L2083.95995,139.374378 L2424.5499,139.374378 Z M2082.05742,139.374378 L2082.05742,479.799543 L1741.46746,479.799543 L1741.46746,139.374378 L2082.05742,139.374378 Z M1739.58377,139.374378 L1739.58377,479.799543 L1398.97498,479.799543 L1398.97498,139.374378 L1739.58377,139.374378 Z M1397.09129,139.374378 L1397.09129,479.799543 L1056.48438,479.799543 L1056.48438,139.374378 L1397.09129,139.374378 Z M1054.6007,139.374378 L1054.6007,479.799543 L713.99567,479.799543 L713.99567,139.374378 L1054.6007,139.374378 Z M712.111981,139.374378 L712.111981,479.799543 L371.506956,479.799543 L371.506956,139.374378 L712.111981,139.374378 Z M369.623266,139.374378 L369.623266,479.799543 L29.0182416,479.799543 L29.0182416,285.243982 L174.962761,139.374378 L369.623266,139.374378 Z M27.1326681,287.126656 L27.1326681,479.799543 L0,479.799543 L0,314.255992 L27.1326681,287.126656 Z M3452.02735,139.374378 L3452.02735,479.799543 L3111.41856,479.799543 L3111.41856,139.374378 L3452.02735,139.374378 Z M3794.51983,139.374378 L3794.51983,479.799543 L3453.91104,479.799543 L3453.91104,139.374378 L3794.51983,139.374378 Z M4136.99347,139.374378 L4136.99347,479.799543 L3796.40352,479.799543 L3796.40352,139.374378 L4136.99347,139.374378 Z M4414.93191,139.374378 L4414.93191,479.799543 L4138.87716,479.799543 L4138.87716,139.374378 L4414.93191,139.374378 Z M369.623266,61.0363005 L369.623266,137.491703 L176.848334,137.491703 L253.346861,61.0363005 L369.623266,61.0363005 Z M712.111981,61.0363005 L712.111981,137.491703 L371.506956,137.491703 L371.506956,61.0363005 L712.111981,61.0363005 Z M1054.6007,61.0363005 L1054.6007,137.491703 L713.99567,137.491703 L713.99567,61.0363005 L1054.6007,61.0363005 Z M1397.09129,61.0363005 L1397.09129,137.491703 L1056.48438,137.491703 L1056.48438,61.0363005 L1397.09129,61.0363005 Z M1739.58377,61.0363005 L1739.58377,137.491703 L1398.97498,137.491703 L1398.97498,61.0363005 L1739.58377,61.0363005 Z M2082.05742,61.0363005 L2082.05742,137.491703 L1741.46746,137.491703 L1741.46746,61.0363005 L2082.05742,61.0363005 Z M2424.5499,61.0363005 L2424.5499,137.491703 L2083.95995,137.491703 L2083.95995,61.0363005 L2424.5499,61.0363005 Z M2767.04238,0 L2767.04238,137.491703 L2426.43359,137.491703 L2426.43359,61.0363005 L2462.67578,61.0363005 L2523.74501,0 L2767.04238,0 Z M3109.53487,0 L3109.53487,137.491703 L2768.92607,137.491703 L2768.92607,0 L3109.53487,0 Z M3452.02735,0 L3452.02735,137.491703 L3111.41856,137.491703 L3111.41856,0 L3452.02735,0 Z M3794.51983,0 L3794.51983,137.491703 L3453.91104,137.491703 L3453.91104,0 L3794.51983,0 Z M4136.99347,0 L4136.99347,137.491703 L3796.40352,137.491703 L3796.40352,0 L4136.99347,0 Z M4414.93191,0 L4414.93191,137.491703 L4138.87716,137.491703 L4138.87716,0 L4414.93191,0 Z"></path>
        </clipPath>
        <clipPath id="1051025753102109115011756">
            <path
                d="M8.69322849,268.864715 L8.69322849,344.529395 L0,353.22735 L0,268.864715 L8.69322849,268.864715 Z M31.4802242,146.095525 L31.4802242,158.370561 L8.69322849,181.15092 L8.69322849,266.982041 L0,266.982041 L0,177.555012 L31.4802242,146.095525 Z M373.970822,0 L373.970822,8.67912848 L181.256169,8.67912848 L33.3657977,156.487887 L33.3657977,144.212851 L177.654554,0 L373.970822,0 Z M3627.50812,0 L3693.94586,66.4019222 L3681.6642,66.4019222 L3623.91028,8.67912848 L3458.25859,8.67912848 L3458.25859,0 L3627.50812,0 Z M3456.3749,0 L3456.3749,8.67912848 L3115.76611,8.67912848 L3115.76611,0 L3456.3749,0 Z M3113.88242,0 L3113.88242,8.67912848 L2773.27363,8.67912848 L2773.27363,0 L3113.88242,0 Z M2771.38994,0 L2771.38994,8.67912848 L2430.78115,8.67912848 L2430.78115,0 L2771.38994,0 Z M2428.89746,0 L2428.89746,8.67912848 L2088.3075,8.67912848 L2088.3075,0 L2428.89746,0 Z M2086.40498,0 L2086.40498,8.67912848 L1745.81502,8.67912848 L1745.81502,0 L2086.40498,0 Z M1743.93133,0 L1743.93133,8.67912848 L1403.32254,8.67912848 L1403.32254,0 L1743.93133,0 Z M1401.43885,0 L1401.43885,8.67912848 L1060.83194,8.67912848 L1060.83194,0 L1401.43885,0 Z M1058.94825,0 L1058.94825,8.67912848 L718.343226,8.67912848 L718.343226,0 L1058.94825,0 Z M716.459537,0 L716.459537,8.67912848 L375.854512,8.67912848 L375.854512,0 L716.459537,0 Z"></path>
        </clipPath>
        <clipPath id="56100521171151165199107108">
            <path
                d="M104.948553,0 C107.710357,0 109.091259,1.28884188 109.091259,3.86652565 L109.091259,13.8090202 C109.091259,16.386704 107.710357,17.6755458 104.948553,17.6755458 L67.3880185,17.6755458 C65.5468158,17.6755458 64.6262145,18.5040871 64.6262145,20.1611695 L64.6262145,173.717474 C64.6262145,176.295158 63.3373726,177.584 60.7596888,177.584 L48.3315707,177.584 C45.7538869,177.584 44.465045,176.295158 44.465045,173.717474 L44.465045,20.1611695 C44.465045,18.5040871 43.5444437,17.6755458 41.703241,17.6755458 L4.14270606,17.6755458 C1.38090202,17.6755458 0,16.386704 0,13.8090202 L0,3.86652565 C0,1.28884188 1.38090202,0 4.14270606,0 L104.948553,0 Z"></path>
        </clipPath>
        <clipPath id="11610756981214912153100119">
            <path
                d="M16.2946438,0 C18.8723276,0 20.1611695,1.28884188 20.1611695,3.86652565 L20.1611695,173.717474 C20.1611695,176.295158 18.8723276,177.584 16.2946438,177.584 L3.86652565,177.584 C1.28884188,177.584 0,176.295158 0,173.717474 L0,3.86652565 C0,1.28884188 1.28884188,0 3.86652565,0 L16.2946438,0 Z"></path>
        </clipPath>
        <clipPath id="545310956122117107114110105">
            <path
                d="M68.4927401,0 C81.1970387,0 91.1395333,3.63637532 98.3202237,10.9091259 C105.500914,18.1818766 109.091259,28.1704012 109.091259,40.8746998 L109.091259,71.5307246 C109.091259,84.4191434 105.500914,94.4536981 98.3202237,101.634389 C91.1395333,108.815079 81.1970387,112.405424 68.4927401,112.405424 L22.9229735,112.405424 C21.0817708,112.405424 20.1611695,113.233966 20.1611695,114.891048 L20.1611695,173.717474 C20.1611695,176.295158 18.8723276,177.584 16.2946438,177.584 L3.86652565,177.584 C1.28884188,177.584 0,176.295158 0,173.717474 L0,3.86652565 C0,1.28884188 1.28884188,0 3.86652565,0 L68.4927401,0 Z M65.7309361,17.6755458 L22.9229735,17.6755458 C21.0817708,17.6755458 20.1611695,18.5040871 20.1611695,20.1611695 L20.1611695,91.9680745 C20.1611695,93.6251569 21.0817708,94.4536981 22.9229735,94.4536981 L65.7309361,94.4536981 C81.1970387,94.4536981 88.93009,86.5365265 88.93009,70.7021834 L88.93009,41.703241 C88.93009,25.6847776 81.1970387,17.6755458 65.7309361,17.6755458 Z"></path>
        </clipPath>
        <clipPath id="101451201141221045148117109">
            <path
                d="M71.5307246,0 C84.0509029,0 93.9933974,3.63637532 101.358208,10.9091259 C108.723019,18.1818766 112.405424,28.1704012 112.405424,40.8746998 L112.405424,47.7792099 C112.405424,50.5410139 111.208643,51.9219159 108.815079,51.9219159 L96.1107805,51.9219159 C93.717217,51.9219159 92.5204353,50.5410139 92.5204353,47.7792099 L92.5204353,42.8079626 C92.5204353,26.0530181 84.3270833,17.6755458 67.9403793,17.6755458 L44.465045,17.6755458 C28.0783411,17.6755458 19.8849891,26.4212586 19.8849891,43.9126842 L19.8849891,54.9599004 C19.8849891,64.3500341 26.0530181,70.7942435 38.3890761,74.2925286 C43.9126842,75.7654908 49.9886531,77.1003627 56.6169828,78.2971445 C63.2453125,79.4939262 69.9196722,81.0589485 76.6400621,82.9922113 C83.3604519,84.9254742 89.4824508,87.3190377 95.0060589,90.1729018 C100.529667,93.026766 104.994584,97.3535923 108.400808,103.153381 C111.807033,108.953169 113.510146,115.99577 113.510146,124.281182 L113.510146,136.7093 C113.510146,149.413598 109.827741,159.402123 102.46293,166.674874 C95.098119,173.947624 85.1556245,177.584 72.6354462,177.584 L40.8746998,177.584 C28.3545215,177.584 18.4120269,173.947624 11.0472162,166.674874 C3.68240538,159.402123 0,149.413598 0,136.7093 L0,127.871527 C0,125.293843 1.28884188,124.005001 3.86652565,124.005001 L16.2946438,124.005001 C18.8723276,124.005001 20.1611695,125.293843 20.1611695,127.871527 L20.1611695,135.052217 C20.1611695,151.623042 28.3545215,159.908454 44.7412254,159.908454 L69.0451009,159.908454 C85.4318049,159.908454 93.6251569,151.438921 93.6251569,134.499857 L93.6251569,125.109723 C93.6251569,111.853064 82.6700009,103.199411 60.7596888,99.148765 C51.5536754,97.4916825 42.3476619,95.5584197 33.1416485,93.3489765 C23.935635,91.1395333 16.1105236,86.858737 9.66631413,80.5065877 C3.22210471,74.1544384 0,65.4547557 0,54.4075395 L0,40.8746998 C0,28.1704012 3.63637532,18.1818766 10.9091259,10.9091259 C18.1818766,3.63637532 28.1704012,0 40.8746998,0 L71.5307246,0 Z"></path>
        </clipPath>
        <clipPath id="971114910750985210948122">
            <path
                d="M89.7586312,0 C92.336315,0 93.6251569,1.28884188 93.6251569,3.86652565 L93.6251569,13.8090202 C93.6251569,16.386704 92.336315,17.6755458 89.7586312,17.6755458 L22.9229735,17.6755458 C21.0817708,17.6755458 20.1611695,18.5040871 20.1611695,20.1611695 L20.1611695,80.3684975 C20.1611695,82.0255799 21.0817708,82.8541211 22.9229735,82.8541211 L82.0255799,82.8541211 C84.6032637,82.8541211 85.8921056,84.142963 85.8921056,86.7206468 L85.8921056,96.6631413 C85.8921056,99.2408251 84.6032637,100.529667 82.0255799,100.529667 L22.9229735,100.529667 C21.0817708,100.529667 20.1611695,101.450268 20.1611695,103.291471 L20.1611695,173.717474 C20.1611695,176.295158 18.8723276,177.584 16.2946438,177.584 L3.86652565,177.584 C1.28884188,177.584 0,176.295158 0,173.717474 L0,3.86652565 C0,1.28884188 1.28884188,0 3.86652565,0 L89.7586312,0 Z"></path>
        </clipPath>
        <clipPath id="11149541131071079910211755">
            <path
                d="M73.7401678,0 C86.4444664,0 96.432991,3.63637532 103.705742,10.9091259 C110.978492,18.1818766 114.614868,28.1704012 114.614868,40.8746998 L114.614868,136.7093 C114.614868,149.413598 110.978492,159.402123 103.705742,166.674874 C96.432991,173.947624 86.4444664,177.584 73.7401678,177.584 L40.8746998,177.584 C28.1704012,177.584 18.1818766,173.993654 10.9091259,166.812964 C3.63637532,159.632273 0,149.597719 0,136.7093 L0,40.8746998 C0,27.9862809 3.63637532,17.9517262 10.9091259,10.7710357 C18.1818766,3.59034525 28.1704012,0 40.8746998,0 L73.7401678,0 Z M71.2545442,17.6755458 L43.084143,17.6755458 C27.8021606,17.6755458 20.1611695,25.6847776 20.1611695,41.703241 L20.1611695,135.880759 C20.1611695,151.899222 27.8021606,159.908454 43.084143,159.908454 L71.2545442,159.908454 C86.7206468,159.908454 94.4536981,151.899222 94.4536981,135.880759 L94.4536981,41.703241 C94.4536981,25.6847776 86.7206468,17.6755458 71.2545442,17.6755458 Z"></path>
        </clipPath>
        <clipPath id="9511648105100989811611355">
            <path
                d="M67.3880185,0 C80.0923171,0 90.1268718,3.63637532 97.4916825,10.9091259 C104.856493,18.1818766 108.538899,28.1704012 108.538899,40.8746998 L108.538899,66.0071165 C108.538899,76.3178516 106.053275,84.833414 101.082028,91.5538039 C96.1107805,98.2741937 89.2062704,102.73911 80.3684975,104.948553 L80.3684975,106.053275 L112.405424,173.165113 C114.062507,176.111037 113.141905,177.584 109.64362,177.584 L97.2155021,177.584 C94.0854576,177.584 91.7839542,176.295158 90.310992,173.717474 L59.3787868,106.881816 L22.9229735,106.881816 C21.0817708,106.881816 20.1611695,107.710357 20.1611695,109.36744 L20.1611695,173.717474 C20.1611695,176.295158 18.8723276,177.584 16.2946438,177.584 L3.86652565,177.584 C1.28884188,177.584 0,176.295158 0,173.717474 L0,3.86652565 C0,1.28884188 1.28884188,0 3.86652565,0 L67.3880185,0 Z M64.6262145,17.6755458 L22.9229735,17.6755458 C21.0817708,17.6755458 20.1611695,18.5040871 20.1611695,20.1611695 L20.1611695,87.549188 C20.1611695,89.2062704 21.0817708,90.0348116 22.9229735,90.0348116 L64.6262145,90.0348116 C80.4605576,90.0348116 88.3777292,82.1176401 88.3777292,66.2832969 L88.3777292,41.703241 C88.3777292,25.6847776 80.4605576,17.6755458 64.6262145,17.6755458 Z"></path>
        </clipPath>
        <clipPath id="10697555353105115555150">
            <path
                d="M18.3659969,0 C20.3913198,0 21.9563421,1.28884188 23.0610637,3.86652565 L62.5548615,87.549188 L63.9357635,87.549188 L103.153381,3.86652565 C103.889862,1.28884188 105.362824,0 107.572267,0 L123.31455,0 C126.444595,0 127.273136,1.38090202 125.800174,4.14270606 L73.0497168,111.024522 L73.0497168,173.717474 C73.0497168,176.295158 71.7608749,177.584 69.1831911,177.584 L56.755073,177.584 C54.1773892,177.584 52.8885473,176.295158 52.8885473,173.717474 L52.8885473,111.024522 L0.414270606,4.14270606 C-0.138090202,2.85386417 -0.138090202,1.84120269 0.414270606,1.10472162 C0.966631413,0.368240538 1.79517262,0 2.89989424,0 L18.3659969,0 Z"></path>
        </clipPath>
        <clipPath id="971105356561181169811399">
            <path
                d="M73.7401678,0 C86.4444664,0 96.432991,3.63637532 103.705742,10.9091259 C110.978492,18.1818766 114.614868,28.1704012 114.614868,40.8746998 L114.614868,136.7093 C114.614868,149.413598 110.978492,159.402123 103.705742,166.674874 C96.432991,173.947624 86.4444664,177.584 73.7401678,177.584 L40.8746998,177.584 C28.1704012,177.584 18.1818766,173.993654 10.9091259,166.812964 C3.63637532,159.632273 0,149.597719 0,136.7093 L0,40.8746998 C0,27.9862809 3.63637532,17.9517262 10.9091259,10.7710357 C18.1818766,3.59034525 28.1704012,0 40.8746998,0 L73.7401678,0 Z M71.2545442,17.6755458 L43.084143,17.6755458 C27.8021606,17.6755458 20.1611695,25.6847776 20.1611695,41.703241 L20.1611695,135.880759 C20.1611695,151.899222 27.8021606,159.908454 43.084143,159.908454 L71.2545442,159.908454 C86.7206468,159.908454 94.4536981,151.899222 94.4536981,135.880759 L94.4536981,41.703241 C94.4536981,25.6847776 86.7206468,17.6755458 71.2545442,17.6755458 Z"></path>
        </clipPath>
        <clipPath id="111515211411010799104049">
            <path
                d="M16.2946438,0 C18.8723276,0 20.1611695,1.28884188 20.1611695,3.86652565 L20.1611695,135.880759 C20.1611695,151.899222 27.8021606,159.908454 43.084143,159.908454 L69.0451009,159.908454 C84.5112036,159.908454 92.2442549,151.899222 92.2442549,135.880759 L92.2442549,3.86652565 C92.2442549,1.28884188 93.4410366,0 95.8346001,0 L108.262718,0 C110.840402,0 112.129244,1.19678175 112.129244,3.59034525 L112.129244,136.7093 C112.129244,149.597719 108.538899,159.632273 101.358208,166.812964 C94.1775177,173.993654 84.2350232,177.584 71.5307246,177.584 L40.8746998,177.584 C28.1704012,177.584 18.1818766,173.993654 10.9091259,166.812964 C3.63637532,159.632273 0,149.597719 0,136.7093 L0,3.86652565 C0,1.28884188 1.28884188,0 3.86652565,0 L16.2946438,0 Z"></path>
        </clipPath>
        <clipPath id="49102955610757102100104106">
            <path
                d="M67.3880185,0 C80.0923171,0 90.1268718,3.63637532 97.4916825,10.9091259 C104.856493,18.1818766 108.538899,28.1704012 108.538899,40.8746998 L108.538899,66.0071165 C108.538899,76.3178516 106.053275,84.833414 101.082028,91.5538039 C96.1107805,98.2741937 89.2062704,102.73911 80.3684975,104.948553 L80.3684975,106.053275 L112.405424,173.165113 C114.062507,176.111037 113.141905,177.584 109.64362,177.584 L97.2155021,177.584 C94.0854576,177.584 91.7839542,176.295158 90.310992,173.717474 L59.3787868,106.881816 L22.9229735,106.881816 C21.0817708,106.881816 20.1611695,107.710357 20.1611695,109.36744 L20.1611695,173.717474 C20.1611695,176.295158 18.8723276,177.584 16.2946438,177.584 L3.86652565,177.584 C1.28884188,177.584 0,176.295158 0,173.717474 L0,3.86652565 C0,1.28884188 1.28884188,0 3.86652565,0 L67.3880185,0 Z M64.6262145,17.6755458 L22.9229735,17.6755458 C21.0817708,17.6755458 20.1611695,18.5040871 20.1611695,20.1611695 L20.1611695,87.549188 C20.1611695,89.2062704 21.0817708,90.0348116 22.9229735,90.0348116 L64.6262145,90.0348116 C80.4605576,90.0348116 88.3777292,82.1176401 88.3777292,66.2832969 L88.3777292,41.703241 C88.3777292,25.6847776 80.4605576,17.6755458 64.6262145,17.6755458 Z"></path>
        </clipPath>
        <clipPath id="11710598121114112111122111111">
            <path
                d="M15.1899222,0 C17.3993654,0 18.8723276,0.736481077 19.6088087,2.20944323 L95.8346001,136.156939 L96.9393217,136.156939 L96.9393217,3.86652565 C96.9393217,1.28884188 98.2281636,0 100.805847,0 L112.957785,0 C115.535469,0 116.824311,1.28884188 116.824311,3.86652565 L116.824311,173.717474 C116.824311,176.295158 115.535469,177.584 112.957785,177.584 L102.73911,177.584 C100.713787,177.584 98.7805244,176.387218 96.9393217,173.993654 L20.9897107,41.4270606 L19.8849891,41.4270606 L19.8849891,173.717474 C19.8849891,176.295158 18.5961472,177.584 16.0184634,177.584 L3.86652565,177.584 C1.28884188,177.584 0,176.295158 0,173.717474 L0,3.86652565 C0,1.28884188 1.28884188,0 3.86652565,0 L15.1899222,0 Z"></path>
        </clipPath>
        <clipPath id="10552120979852101105106122">
            <path
                d="M90.5871724,0 C93.1648562,0 94.4536981,1.28884188 94.4536981,3.86652565 L94.4536981,13.8090202 C94.4536981,16.386704 93.1648562,17.6755458 90.5871724,17.6755458 L22.9229735,17.6755458 C21.0817708,17.6755458 20.1611695,18.5040871 20.1611695,20.1611695 L20.1611695,75.949611 C20.1611695,77.6066935 21.0817708,78.4352347 22.9229735,78.4352347 L82.0255799,78.4352347 C84.6032637,78.4352347 85.8921056,79.7240766 85.8921056,82.3017603 L85.8921056,92.2442549 C85.8921056,94.8219386 84.6032637,96.1107805 82.0255799,96.1107805 L22.9229735,96.1107805 C21.0817708,96.1107805 20.1611695,96.9393217 20.1611695,98.5964042 L20.1611695,157.42283 C20.1611695,159.079913 21.0817708,159.908454 22.9229735,159.908454 L90.5871724,159.908454 C93.1648562,159.908454 94.4536981,161.197296 94.4536981,163.774979 L94.4536981,173.717474 C94.4536981,176.295158 93.1648562,177.584 90.5871724,177.584 L3.86652565,177.584 C1.28884188,177.584 0,176.295158 0,173.717474 L0,3.86652565 C0,1.28884188 1.28884188,0 3.86652565,0 L90.5871724,0 Z"></path>
        </clipPath>
        <clipPath id="10612252122103559550116106">
            <path
                d="M19.232199,0 C22.1781233,0 24.2034463,1.28884188 25.3081679,3.86652565 L62.316342,71.806905 L63.4210636,71.806905 L99.8768769,3.86652565 C101.349839,1.28884188 103.375162,0 105.952846,0 L120.314227,0 C121.603069,0 122.47764,0.414270606 122.937941,1.24281182 C123.398241,2.07135303 123.352211,3.03798444 122.79985,4.14270606 L76.677723,84.5112036 L124.733113,173.441294 C125.469594,174.546015 125.607685,175.512647 125.147384,176.341188 C124.687083,177.169729 123.812512,177.584 122.52367,177.584 L107.886109,177.584 C105.308425,177.584 103.559282,176.387218 102.638681,173.993654 L63.1448832,99.9773062 L62.0401616,99.9773062 L22.8225443,173.993654 C21.5337024,176.387218 19.6924997,177.584 17.2989362,177.584 L2.9375552,177.584 C1.64871332,177.584 0.774142041,177.169729 0.313841368,176.341188 C-0.146459305,175.512647 -0.100429238,174.546015 0.45193157,173.441294 L48.7835022,84.787384 L2.9375552,4.14270606 C2.20107413,3.03798444 2.10901399,2.07135303 2.6613748,1.24281182 C3.21373561,0.414270606 4.13433695,0 5.42317884,0 L19.232199,0 Z"></path>
        </clipPath>
        <clipPath id="1091220108010811412150103">
            <path
                d="M104.948553,0 C107.710357,0 109.091259,1.28884188 109.091259,3.86652565 L109.091259,13.8090202 C109.091259,16.386704 107.710357,17.6755458 104.948553,17.6755458 L67.3880185,17.6755458 C65.5468158,17.6755458 64.6262145,18.5040871 64.6262145,20.1611695 L64.6262145,173.717474 C64.6262145,176.295158 63.3373726,177.584 60.7596888,177.584 L48.3315707,177.584 C45.7538869,177.584 44.465045,176.295158 44.465045,173.717474 L44.465045,20.1611695 C44.465045,18.5040871 43.5444437,17.6755458 41.703241,17.6755458 L4.14270606,17.6755458 C1.38090202,17.6755458 0,16.386704 0,13.8090202 L0,3.86652565 C0,1.28884188 1.38090202,0 4.14270606,0 L104.948553,0 Z"></path>
        </clipPath>
        <clipPath id="9749112100118120113104114108">
            <path
                d="M68.4927401,0 C81.1970387,0 91.1395333,3.63637532 98.3202237,10.9091259 C105.500914,18.1818766 109.091259,28.1704012 109.091259,40.8746998 L109.091259,71.5307246 C109.091259,84.4191434 105.500914,94.4536981 98.3202237,101.634389 C91.1395333,108.815079 81.1970387,112.405424 68.4927401,112.405424 L22.9229735,112.405424 C21.0817708,112.405424 20.1611695,113.233966 20.1611695,114.891048 L20.1611695,173.717474 C20.1611695,176.295158 18.8723276,177.584 16.2946438,177.584 L3.86652565,177.584 C1.28884188,177.584 0,176.295158 0,173.717474 L0,3.86652565 C0,1.28884188 1.28884188,0 3.86652565,0 L68.4927401,0 Z M65.7309361,17.6755458 L22.9229735,17.6755458 C21.0817708,17.6755458 20.1611695,18.5040871 20.1611695,20.1611695 L20.1611695,91.9680745 C20.1611695,93.6251569 21.0817708,94.4536981 22.9229735,94.4536981 L65.7309361,94.4536981 C81.1970387,94.4536981 88.93009,86.5365265 88.93009,70.7021834 L88.93009,41.703241 C88.93009,25.6847776 81.1970387,17.6755458 65.7309361,17.6755458 Z"></path>
        </clipPath>
        <clipPath id="1061131091201194511012152112">
            <path
                d="M16.2946438,0 C18.8723276,0 20.1611695,1.28884188 20.1611695,3.86652565 L20.1611695,173.717474 C20.1611695,176.295158 18.8723276,177.584 16.2946438,177.584 L3.86652565,177.584 C1.28884188,177.584 0,176.295158 0,173.717474 L0,3.86652565 C0,1.28884188 1.28884188,0 3.86652565,0 L16.2946438,0 Z"></path>
        </clipPath>
        <clipPath id="9597985297549599115107">
            <path
                d="M90.5871724,0 C93.1648562,0 94.4536981,1.28884188 94.4536981,3.86652565 L94.4536981,13.8090202 C94.4536981,16.386704 93.1648562,17.6755458 90.5871724,17.6755458 L22.9229735,17.6755458 C21.0817708,17.6755458 20.1611695,18.5040871 20.1611695,20.1611695 L20.1611695,75.949611 C20.1611695,77.6066935 21.0817708,78.4352347 22.9229735,78.4352347 L82.0255799,78.4352347 C84.6032637,78.4352347 85.8921056,79.7240766 85.8921056,82.3017603 L85.8921056,92.2442549 C85.8921056,94.8219386 84.6032637,96.1107805 82.0255799,96.1107805 L22.9229735,96.1107805 C21.0817708,96.1107805 20.1611695,96.9393217 20.1611695,98.5964042 L20.1611695,157.42283 C20.1611695,159.079913 21.0817708,159.908454 22.9229735,159.908454 L90.5871724,159.908454 C93.1648562,159.908454 94.4536981,161.197296 94.4536981,163.774979 L94.4536981,173.717474 C94.4536981,176.295158 93.1648562,177.584 90.5871724,177.584 L3.86652565,177.584 C1.28884188,177.584 0,176.295158 0,173.717474 L0,3.86652565 C0,1.28884188 1.28884188,0 3.86652565,0 L90.5871724,0 Z"></path>
        </clipPath>
        <clipPath id="1171181009511912210011111148">
            <path
                d="M74.0163482,0 C86.7206468,0 96.7091714,3.59034525 103.981922,10.7710357 C111.254673,17.9517262 114.891048,27.9862809 114.891048,40.8746998 L114.891048,54.4075395 C114.891048,56.9852233 113.602206,58.2740652 111.024522,58.2740652 L98.5964042,58.2740652 C96.0187204,58.2740652 94.7298785,56.9852233 94.7298785,54.4075395 L94.7298785,41.703241 C94.7298785,25.6847776 86.9968272,17.6755458 71.5307246,17.6755458 L43.084143,17.6755458 C27.8021606,17.6755458 20.1611695,25.6847776 20.1611695,41.703241 L20.1611695,135.880759 C20.1611695,151.899222 27.8021606,159.908454 43.084143,159.908454 L71.5307246,159.908454 C86.9968272,159.908454 94.7298785,151.899222 94.7298785,135.880759 L94.7298785,123.17646 C94.7298785,120.598776 96.0187204,119.309934 98.5964042,119.309934 L111.024522,119.309934 C113.602206,119.309934 114.891048,120.598776 114.891048,123.17646 L114.891048,136.7093 C114.891048,149.597719 111.254673,159.632273 103.981922,166.812964 C96.7091714,173.993654 86.7206468,177.584 74.0163482,177.584 L40.8746998,177.584 C28.1704012,177.584 18.1818766,173.993654 10.9091259,166.812964 C3.63637532,159.632273 0,149.597719 0,136.7093 L0,40.8746998 C0,27.9862809 3.63637532,17.9517262 10.9091259,10.7710357 C18.1818766,3.59034525 28.1704012,0 40.8746998,0 L74.0163482,0 Z"></path>
        </clipPath>
        <clipPath id="5111557121113110100485256">
            <path
                d="M1163,0 L1163,386.986897 L470.09142,1095.79151 L470.09142,2776.14597 L0,3257 L0,3244.69777 L461.577199,2772.53151 L461.577199,1092.19883 L1154.48578,383.394209 L1154.48578,0 L1163,0 Z"></path>
        </clipPath>
        <clipPath id="1211075152514911155115117">
            <path
                d="M1163,0 L1163,383.778839 L470.09142,1086.70758 L470.09142,2753.13217 L0,3230 L0,3217.79975 L461.577199,2749.54768 L461.577199,1083.14468 L1154.48578,380.215934 L1154.48578,0 L1163,0 Z"></path>
        </clipPath>
    </defs>
    <g transform="translate(0.5 0.5)">
        <g transform="translate(3214.5 508.5)">
            <g transform="translate(695.770971470585 91.76154489128024) scale(1.0 -1.0)">
                <g clip-path="url(#108104451125011910050104116)">
                    <polygon points="0,0 3140.80035,0 3140.80035,46.5961887 0,46.5961887 0,0" stroke="none"
                             fill="#FFFFFF"></polygon>
                </g>
            </g>
            <g transform="translate(583.6123126246131 955.9090439699261) scale(1.0 -1.0)">
                <g clip-path="url(#105117121102108105115459956)">
                    <polygon points="0,0 1890.39198,0 1890.39198,34.8294744 0,34.8294744 0,0" stroke="none"
                             fill="#FFFFFF"></polygon>
                </g>
            </g>
            <g transform="translate(0.0 988.9688045011326) scale(1.0 -1.0)">
                <g clip-path="url(#981081011130561001075756)">
                    <polygon points="0,0 4550,0 4550,988.968805 0,988.968805 0,0" stroke="none"
                             fill="#FFFFFF"></polygon>
                </g>
            </g>
            <g transform="translate(54.95476660461645 920.4959405763078) scale(1.0 -1.0)">
                <g clip-path="url(#10911411312012010810510097110)">
                    <polygon points="0,0 4414.93191,0 4414.93191,857.407525 0,857.407525 0,0" stroke="none"
                             fill="#FFFFFF" opacity="10%"></polygon>
                </g>
            </g>
            <g transform="translate(55.45961193324183 1060.9999999999975) scale(1.0 -1.0)">
                <g clip-path="url(#1051025753102109115011756)">
                    <polygon points="0,0 3693.94586,0 3693.94586,353.22735 0,353.22735 0,0" stroke="none"
                             fill="#FFFFFF"></polygon>
                </g>
            </g>
            <g transform="translate(793.417189593405 350.4400201410406)">
                <text transform="translate(0.34449447598035476 257.0)" font-family="Rajdhani-Medium, Rajdhani"
                      font-size="276.1804037896736" font-weight="400" fill="#FFFFFF" text-anchor="center">TIPS FOR
                    YOUR NEXT PIECE
                </text>
            </g>
            <g transform="translate(798.1805705300167 429.8560205042861)">
                <g clip-path="url(#56100521171151165199107108)">
                    <polygon points="0,0 109.091259,0 109.091259,177.584 0,177.584 0,0" stroke="none"
                             fill="#FFFFFF"></polygon>
                </g>
                <g transform="translate(136.709299875889 0.0)">
                    <g clip-path="url(#11610756981214912153100119)">
                        <polygon points="0,0 20.1611695,0 20.1611695,177.584 0,177.584 0,0" stroke="none"
                                 fill="#FFFFFF"></polygon>
                    </g>
                </g>
                <g transform="translate(201.88787517025054 0.0)">
                    <g clip-path="url(#545310956122117107114110105)">
                        <polygon points="0,0 109.091259,0 109.091259,177.584 0,177.584 0,0" stroke="none"
                                 fill="#FFFFFF"></polygon>
                    </g>
                </g>
                <g transform="translate(345.2255047370891 0.0)">
                    <g clip-path="url(#101451201141221045148117109)">
                        <polygon points="0,0 113.510146,0 113.510146,177.584 0,177.584 0,0" stroke="none"
                                 fill="#FFFFFF"></polygon>
                    </g>
                </g>
                <g transform="translate(570.5887142294632 0.0)">
                    <g clip-path="url(#971114910750985210948122)">
                        <polygon points="0,0 93.6251569,0 93.6251569,177.584 0,177.584 0,0" stroke="none"
                                 fill="#FFFFFF"></polygon>
                    </g>
                </g>
                <g transform="translate(694.0413547234493 0.0)">
                    <g clip-path="url(#11149541131071079910211755)">
                        <polygon points="0,0 114.614868,0 114.614868,177.584 0,177.584 0,0" stroke="none"
                                 fill="#FFFFFF"></polygon>
                    </g>
                </g>
                <g transform="translate(849.5309220570343 0.0)">
                    <g clip-path="url(#9511648105100989811611355)">
                        <polygon points="0,0 113.204375,0 113.204375,177.584 0,177.584 0,0" stroke="none"
                                 fill="#FFFFFF"></polygon>
                    </g>
                </g>
                <g transform="translate(1052.10924823676 0.0)">
                    <g clip-path="url(#10697555353105115555150)">
                        <polygon
                            points="5.68434189e-14,0 126.507196,0 126.507196,177.584 5.68434189e-14,177.584 5.68434189e-14,0"
                            stroke="none" fill="#FFFFFF"></polygon>
                    </g>
                </g>
                <g transform="translate(1203.318019311606 0.0)">
                    <g clip-path="url(#971105356561181169811399)">
                        <polygon points="0,0 114.614868,0 114.614868,177.584 0,177.584 0,0" stroke="none"
                                 fill="#FFFFFF"></polygon>
                    </g>
                </g>
                <g transform="translate(1357.426684626244 0.0)">
                    <g clip-path="url(#111515211411010799104049)">
                        <polygon points="0,0 112.129244,0 112.129244,177.584 0,177.584 0,0" stroke="none"
                                 fill="#FFFFFF"></polygon>
                    </g>
                </g>
                <g transform="translate(1511.811530344672 0.0)">
                    <g clip-path="url(#49102955610757102100104106)">
                        <polygon points="0,0 113.204375,0 113.204375,177.584 0,177.584 0,0" stroke="none"
                                 fill="#FFFFFF"></polygon>
                    </g>
                </g>
                <g transform="translate(1730.270229742306 0.0)">
                    <g clip-path="url(#11710598121114112111122111111)">
                        <polygon points="0,0 116.824311,0 116.824311,177.584 0,177.584 0,0" stroke="none"
                                 fill="#FFFFFF"></polygon>
                    </g>
                </g>
                <g transform="translate(1890.731044344106 0.0)">
                    <g clip-path="url(#10552120979852101105106122)">
                        <polygon points="0,0 94.4536981,0 94.4536981,177.584 0,177.584 0,0" stroke="none"
                                 fill="#FFFFFF"></polygon>
                    </g>
                </g>
                <g transform="translate(2009.8652276151952 0.0)">
                    <g clip-path="url(#10612252122103559550116106)">
                        <polygon
                            points="-2.0156099e-13,0 125.412942,0 125.412942,177.584 -2.0156099e-13,177.584 -2.0156099e-13,0"
                            stroke="none" fill="#FFFFFF"></polygon>
                    </g>
                </g>
                <g transform="translate(2147.855000272291 0.0)">
                    <g clip-path="url(#1091220108010811412150103)">
                        <polygon points="0,0 109.091259,0 109.091259,177.584 0,177.584 0,0" stroke="none"
                                 fill="#FFFFFF"></polygon>
                    </g>
                </g>
                <g transform="translate(2353.333220691809 0.0)">
                    <g clip-path="url(#9749112100118120113104114108)">
                        <polygon points="0,0 109.091259,0 109.091259,177.584 0,177.584 0,0" stroke="none"
                                 fill="#FFFFFF"></polygon>
                    </g>
                </g>
                <g transform="translate(2499.985015104125 0.0)">
                    <g clip-path="url(#1061131091201194511012152112)">
                        <polygon points="0,0 20.1611695,0 20.1611695,177.584 0,177.584 0,0" stroke="none"
                                 fill="#FFFFFF"></polygon>
                    </g>
                </g>
                <g transform="translate(2565.163590398486 0.0)">
                    <g clip-path="url(#9597985297549599115107)">
                        <polygon points="0,0 94.4536981,0 94.4536981,177.584 0,177.584 0,0" stroke="none"
                                 fill="#FFFFFF"></polygon>
                    </g>
                </g>
                <g transform="translate(2694.968380179635 0.0)">
                    <g clip-path="url(#1171181009511912210011111148)">
                        <polygon points="0,0 114.891048,0 114.891048,177.584 0,177.584 0,0" stroke="none"
                                 fill="#FFFFFF"></polygon>
                    </g>
                </g>
                <g transform="translate(2847.143782667743 0.0)">
                    <g clip-path="url(#9597985297549599115107)">
                        <polygon points="0,0 94.4536981,0 94.4536981,177.584 0,177.584 0,0" stroke="none"
                                 fill="#FFFFFF"></polygon>
                    </g>
                </g>
            </g>
        </g>
        <g transform="translate(7763.5 334.50000000000034) rotate(89.99999999999999) scale(1.0 -1.0)">
            <g clip-path="url(#5111557121113110100485256)">
                <g clip-path="url(#5111557121113110100485256)">
                    <polygon
                        points="3.63797881e-12,3.63797881e-12 1163,3.63797881e-12 1163,3257 3.63797881e-12,3257 3.63797881e-12,3.63797881e-12"
                        stroke="none" fill="#FFFFFF"></polygon>
                </g>
            </g>
        </g>
        <g transform="translate(0.0 1162.9999999999995) rotate(-89.99999999999999)">
            <g clip-path="url(#1211075152514911155115117)">
                <g clip-path="url(#1211075152514911155115117)">
                    <polygon points="0,0 1163,0 1163,3230 0,3230 0,0" stroke="none" fill="#FFFFFF"></polygon>
                </g>
            </g>
        </g>
    </g>
</svg>
